<?xml version="1.0" encoding="utf-8"?>
<!-- Generator: Adobe Illustrator 16.0.0, SVG Export Plug-In . SVG Version: 6.00 Build 0)  -->
<!DOCTYPE svg PUBLIC "-//W3C//DTD SVG 1.1//EN" "http://www.w3.org/Graphics/SVG/1.1/DTD/svg11.dtd">
<svg version="1.1" id="Layer_1" xmlns="http://www.w3.org/2000/svg" xmlns:xlink="http://www.w3.org/1999/xlink" x="0px" y="0px"
	 width="68px" height="59.617px" viewBox="0 0 68 59.617" enable-background="new 0 0 68 59.617" xml:space="preserve">
<g>
	<g>
		<g>
			<g>
				<g>
					<g>
						<defs>
							<path id="SVGID_1_" d="M67.277,0H8.178v59.312h59.099V39.745c0.234-0.352,0.375-0.774,0.375-1.312
								c0-0.61-0.141-0.985-0.375-1.289V0z"/>
						</defs>
						<radialGradient id="SVGID_2_" cx="18.104" cy="10.2373" r="70.4765" gradientUnits="userSpaceOnUse">
							<stop  offset="0" style="stop-color:#83D4F6"/>
							<stop  offset="0.0528" style="stop-color:#7DD2F5"/>
							<stop  offset="0.1232" style="stop-color:#6CCDF3"/>
							<stop  offset="0.2034" style="stop-color:#50C3EF"/>
							<stop  offset="0.2903" style="stop-color:#2AB7EA"/>
							<stop  offset="0.3708" style="stop-color:#00A9E5"/>
							<stop  offset="0.4481" style="stop-color:#009EDC"/>
							<stop  offset="0.6214" style="stop-color:#008CCE"/>
							<stop  offset="0.802" style="stop-color:#0081C5"/>
							<stop  offset="1" style="stop-color:#007DC2"/>
						</radialGradient>
						<use xlink:href="#SVGID_1_"  overflow="visible" fill="url(#SVGID_2_)"/>
						<clipPath id="SVGID_3_">
							<use xlink:href="#SVGID_1_"  overflow="visible"/>
						</clipPath>
					</g>
				</g>
			</g>
		</g>
		<g>
			<path fill="#FFFFFF" d="M8.178,30.042h2.857l0.611-1.545h1.449l0.659,1.545h5.576v-1.194l0.47,1.194h2.905l0.517-1.194v1.194
				h13.871v-2.53h0.283c0.189,0,0.232,0.024,0.232,0.328v2.203h7.172v-0.584c0.561,0.304,1.455,0.584,2.672,0.584h3l0.654-1.545
				h1.457l0.607,1.545h5.814v-1.476l0.889,1.476h4.637V20.34H59.92v1.148l-0.658-1.148h-4.732v1.148l-0.561-1.148h-6.422
				c-1.076,0-2.016,0.14-2.766,0.562V20.34h-4.404v0.562c-0.518-0.422-1.172-0.562-1.875-0.562H22.379l-1.125,2.508l-1.077-2.508
				h-5.064v1.148l-0.561-1.148h-4.36l-2.014,4.618V30.042z M63.062,28.66h-2.346l-3.188-5.202v5.202h-3.375l-0.607-1.547h-3.469
				l-0.656,1.547H47.5c-0.797,0-1.828-0.164-2.391-0.75c-0.609-0.61-0.889-1.407-0.889-2.672c0-1.03,0.186-1.968,0.889-2.696
				c0.516-0.562,1.361-0.819,2.533-0.819h1.594V23.2h-1.594c-0.611,0-0.939,0.093-1.268,0.422c-0.283,0.28-0.469,0.843-0.469,1.569
				c0,0.75,0.141,1.289,0.469,1.642c0.234,0.256,0.703,0.351,1.125,0.351h0.75l2.342-5.46h2.484l2.814,6.562v-6.562h2.531
				l2.951,4.827v-4.827h1.689V28.66z M43.375,28.66h-1.688v-6.937h1.688V28.66z M40.752,23.598c0,1.101-0.75,1.688-1.172,1.851
				c0.326,0.14,0.658,0.375,0.797,0.586c0.232,0.328,0.279,0.655,0.279,1.265v1.359h-1.686v-0.868c0-0.42,0.045-1.006-0.232-1.358
				c-0.285-0.234-0.658-0.282-1.223-0.282H35.74v2.508h-1.691v-6.937h3.845c0.844,0,1.447,0.024,2.012,0.328
				C40.424,22.355,40.752,22.824,40.752,23.598z M32.925,28.66h-5.581v-6.937h5.581v1.453h-3.893v1.241h3.798v1.431h-3.798v1.382
				h3.893V28.66z M26.128,28.66h-1.689l-0.044-5.437l-2.392,5.437h-1.452l-2.439-5.437v5.437h-3.37l-0.611-1.547h-3.47l-0.655,1.547
				h-1.78l2.952-6.937h2.483l2.814,6.585v-6.585h2.715l2.155,4.71l2.017-4.71h2.767V28.66z M52.936,25.66l-1.121-2.764l-1.172,2.764
				H52.936z M38.549,24.583c-0.232,0.117-0.469,0.14-0.797,0.14H35.74v-1.547h2.012c0.328,0,0.607,0,0.797,0.117
				c0.232,0.095,0.375,0.33,0.375,0.609C38.924,24.208,38.781,24.441,38.549,24.583z M13.519,25.66l-1.122-2.764l-1.128,2.764
				H13.519z"/>
			<path fill="#FFFFFF" d="M40.377,35.972c0,1.922-1.453,2.318-2.906,2.318h-2.062v2.345h-3.233l-2.017-2.297l-2.156,2.297H21.44
				v-6.96h6.705l2.014,2.272l2.107-2.272h5.3C38.924,33.675,40.377,34.05,40.377,35.972z M27.159,39.183h-4.077v-1.384h3.658v-1.404
				h-3.658v-1.268h4.172l1.827,2.017L27.159,39.183z M33.766,40.001l-2.526-2.836l2.526-2.741V40.001z M37.566,36.886h-2.158v-1.759
				h2.158c0.607,0,1.025,0.235,1.025,0.845C38.592,36.582,38.221,36.886,37.566,36.886z M48.764,33.675h5.533v1.452h-3.893v1.268
				h3.799v1.404h-3.799v1.384h3.893v1.452h-5.533V33.675z M46.656,37.4c0.375,0.141,0.701,0.374,0.844,0.586
				c0.236,0.352,0.236,0.657,0.281,1.266v1.383h-1.689v-0.867c0-0.422,0.051-1.031-0.277-1.359
				c-0.236-0.258-0.611-0.306-1.223-0.306h-1.777v2.532h-1.641v-6.96h3.84c0.844,0,1.457,0.047,1.973,0.327
				c0.514,0.33,0.842,0.75,0.842,1.548C47.828,36.65,47.125,37.236,46.656,37.4z M45.672,36.534c-0.236,0.14-0.516,0.14-0.844,0.14
				h-2.014v-1.547h2.061c0.281,0,0.613,0,0.797,0.119C45.857,35.362,46,35.572,46,35.877C46,36.159,45.857,36.415,45.672,36.534z
				 M60.672,36.956c0.326,0.352,0.469,0.771,0.469,1.477c0,1.499-0.939,2.202-2.578,2.202h-3.234v-1.5h3.184
				c0.328,0,0.564-0.048,0.707-0.164c0.094-0.118,0.186-0.258,0.186-0.445c0-0.212-0.092-0.375-0.186-0.468
				c-0.143-0.119-0.328-0.164-0.611-0.164c-1.545-0.047-3.467,0.045-3.467-2.134c0-1.031,0.609-2.085,2.346-2.085h3.326v1.476
				h-3.051c-0.275,0-0.465,0.023-0.654,0.14c-0.186,0.095-0.234,0.282-0.234,0.494c0,0.257,0.141,0.444,0.328,0.515
				c0.189,0.071,0.377,0.096,0.654,0.096l0.895,0.021C59.686,36.438,60.297,36.582,60.672,36.956z M67.277,39.745
				c-0.422,0.586-1.172,0.89-2.248,0.89H61.84v-1.5h3.189c0.283,0,0.516-0.048,0.654-0.164c0.094-0.118,0.189-0.258,0.189-0.445
				c0-0.212-0.096-0.375-0.189-0.468c-0.139-0.119-0.279-0.164-0.561-0.164c-1.594-0.047-3.518,0.045-3.518-2.134
				c0-1.031,0.613-2.085,2.346-2.085h3.326v-1.384h-3.094c-0.889,0-1.594,0.235-2.061,0.587v-0.587h-4.545
				c-0.705,0-1.592,0.188-1.971,0.587v-0.587H47.5v0.587c-0.658-0.469-1.736-0.587-2.25-0.587h-5.344v0.587
				c-0.514-0.516-1.686-0.587-2.34-0.587h-6l-1.408,1.5l-1.264-1.5H19.94v9.703h8.766l1.453-1.5l1.313,1.5h5.387v-2.273h0.566
				c0.701,0,1.545-0.023,2.295-0.327v2.601h4.5v-2.532h0.186c0.279,0,0.332,0.024,0.332,0.283v2.249h13.541
				c0.844,0,1.785-0.211,2.25-0.609v0.609h4.311c0.895,0,1.783-0.118,2.438-0.445V39.745z M67.277,35.15h-3.043
				c-0.283,0-0.473,0.023-0.658,0.14c-0.186,0.095-0.236,0.282-0.236,0.494c0,0.257,0.145,0.444,0.379,0.515
				c0.137,0.071,0.326,0.096,0.607,0.096l0.936,0.021c0.891,0.023,1.5,0.167,1.877,0.541c0.045,0.069,0.096,0.117,0.139,0.188V35.15
				z"/>
		</g>
	</g>
	<g>
		<g>
			<g>
				<path fill="#007DC2" d="M4.429,58.094H3.864c-0.043-0.212-0.043-0.586-0.043-0.681c0-0.209-0.051-0.396-0.379-0.396H2.648v1.077
					H2.226v-2.625h1.216c0.422,0,0.845,0.164,0.845,0.726c0,0.329-0.139,0.492-0.281,0.61c0.142,0.045,0.237,0.164,0.237,0.468
					l0.044,0.445c0,0.141,0,0.164,0.142,0.235V58.094z M3.821,56.242c0-0.329-0.189-0.375-0.379-0.375H2.648v0.75h0.75
					C3.631,56.617,3.821,56.546,3.821,56.242z M5.976,56.805c0-1.547-1.22-2.789-2.814-2.789c-1.547,0-2.814,1.242-2.814,2.789
					c0,1.568,1.267,2.812,2.814,2.812C4.756,59.617,5.976,58.373,5.976,56.805z M5.553,56.805c0,1.312-0.982,2.39-2.391,2.39
					c-1.358,0-2.392-1.077-2.392-2.39c0-1.312,1.034-2.392,2.392-2.392C4.571,54.413,5.553,55.493,5.553,56.805z"/>
			</g>
		</g>
	</g>
</g>
</svg>
